# xmcd
#
# Track frame offsets:
#	150
#	18305
#	33080
#	46137
#	61685
#	75207
#	89930
#	106600
#	120130
#	136445
#	150475
#	164982
#
# Disc length: 2509 seconds
#
# Revision: 0
# Processed by: cddbd v1.4PL0 Copyright (c) Steve Scherf et al.
# Submitted via: dBpowerAMP V4.0
#
DISCID=8409cb0c
DTITLE=Randy Huston - Keepin' The New West Wild
DYEAR=1900
DGENRE=Country
TTITLE0=Keepin' The New West Wild
TTITLE1=Charlie
TTITLE2=Not Just Along For The Ride
TTITLE3=Let There Be One Cowboy Left
TTITLE4=Right From The Heart
TTITLE5=Lucky To Be Sad
TTITLE6=Tequila For Me
TTITLE7=Lookin' The Wolf In The Eye
TTITLE8=Make My Mother Smile
TTITLE9=Echos Through The Canyon
TTITLE10=Forever
TTITLE11=Right As Rain (Sandy Bob And Buster Jiggs)
EXTD=
EXTT0=
EXTT1=
EXTT2=
EXTT3=
EXTT4=
EXTT5=
EXTT6=
EXTT7=
EXTT8=
EXTT9=
EXTT10=
EXTT11=
PLAYORDER=
